<?xml version="1.0" standalone="no"?>
<!DOCTYPE svg PUBLIC "-//W3C//DTD SVG 20010904//EN"
 "http://www.w3.org/TR/2001/REC-SVG-20010904/DTD/svg10.dtd">
<svg version="1.0" xmlns="http://www.w3.org/2000/svg"
 width="1483.000000pt" height="1449.000000pt" viewBox="0 0 1483.000000 1449.000000"
 preserveAspectRatio="xMidYMid meet">

<g transform="translate(0.000000,1449.000000) scale(0.100000,-0.100000)"
fill="#000000" stroke="none">
<path d="M9133 13519 c-10 -3 -47 -7 -82 -8 -36 -2 -101 -9 -145 -17 -169 -31
-193 -34 -271 -34 -63 0 -86 -4 -110 -20 -16 -11 -39 -20 -51 -20 -11 0 -24
-3 -27 -6 -4 -4 -20 -8 -36 -9 -16 -2 -43 -12 -59 -24 -17 -11 -41 -21 -54
-21 -13 0 -34 -7 -47 -16 -13 -10 -36 -17 -51 -16 -45 1 -140 -33 -169 -60
-15 -15 -38 -28 -52 -29 -13 -2 -42 -16 -65 -31 -22 -15 -54 -30 -70 -34 -16
-3 -58 -27 -94 -53 -95 -68 -136 -92 -144 -83 -4 4 -6 1 -4 -7 2 -10 -23 -28
-72 -52 -41 -21 -80 -41 -85 -46 -16 -15 -125 -83 -131 -83 -7 0 -22 -13 -135
-116 -47 -44 -108 -97 -135 -120 -56 -47 -216 -258 -276 -367 -55 -96 -148
-284 -148 -296 0 -5 -16 -44 -35 -87 -19 -42 -40 -95 -47 -118 -7 -22 -21 -59
-33 -81 -19 -38 -24 -41 -95 -57 -131 -31 -334 -79 -370 -88 -19 -5 -78 -18
-130 -30 -52 -12 -167 -41 -255 -66 -88 -24 -196 -53 -240 -65 -44 -12 -107
-29 -140 -39 -54 -16 -191 -51 -335 -85 -30 -8 -86 -23 -125 -35 -38 -12 -92
-28 -119 -36 -27 -7 -64 -23 -83 -34 -19 -11 -42 -20 -52 -20 -17 0 -128 -45
-236 -95 -27 -13 -61 -26 -75 -30 -14 -4 -62 -25 -108 -46 -45 -21 -86 -39
-90 -39 -4 0 -52 -22 -107 -50 -55 -27 -105 -50 -111 -50 -6 0 -17 -7 -24 -15
-7 -8 -20 -15 -30 -15 -9 0 -25 -9 -35 -20 -10 -11 -28 -20 -40 -20 -11 0 -35
-11 -52 -25 -26 -22 -93 -66 -158 -103 -11 -6 -44 -22 -72 -36 -29 -14 -59
-30 -65 -36 -7 -6 -30 -26 -52 -45 -21 -19 -46 -35 -56 -35 -10 0 -25 -11 -34
-25 -9 -14 -21 -25 -27 -25 -13 0 -81 -52 -130 -100 -19 -19 -56 -54 -82 -78
-26 -24 -47 -51 -47 -61 0 -19 -124 -284 -145 -311 -7 -8 -45 -87 -85 -175
-40 -88 -92 -199 -116 -247 -24 -47 -44 -90 -44 -95 0 -5 -13 -36 -28 -69 -16
-32 -37 -81 -46 -109 -10 -27 -22 -58 -27 -68 -5 -9 -19 -43 -30 -75 -23 -65
-46 -123 -65 -169 -8 -17 -14 -36 -14 -42 0 -6 -6 -25 -14 -43 -17 -40 -82
-247 -95 -303 -5 -22 -21 -85 -36 -140 -15 -55 -31 -120 -36 -145 -4 -25 -15
-74 -23 -110 -9 -36 -23 -99 -32 -140 -9 -41 -22 -93 -29 -115 -7 -22 -25 -94
-40 -160 -15 -66 -36 -156 -47 -200 -12 -44 -29 -114 -38 -155 -10 -41 -25
-97 -34 -123 -10 -27 -14 -57 -10 -70 4 -11 10 -46 15 -77 10 -71 35 -185 59
-280 11 -41 22 -96 25 -121 3 -26 12 -69 20 -95 8 -27 15 -59 15 -72 0 -12 12
-50 26 -85 14 -34 27 -82 28 -107 2 -25 8 -58 14 -75 15 -43 34 -121 43 -185
10 -71 13 -83 21 -96 7 -10 23 -76 34 -134 3 -14 12 -38 20 -54 8 -16 14 -35
14 -41 0 -7 12 -39 26 -71 14 -33 29 -68 33 -79 15 -36 49 -159 55 -196 4 -21
13 -51 22 -67 8 -17 17 -53 21 -81 3 -28 10 -51 14 -51 5 0 9 -14 9 -30 0 -17
9 -49 20 -73 11 -23 22 -59 24 -79 3 -21 11 -48 18 -60 7 -13 13 -45 14 -73 1
-56 29 -168 50 -200 12 -19 26 -68 38 -140 5 -30 84 -252 110 -310 8 -16 19
-61 26 -100 18 -106 74 -293 120 -401 11 -25 20 -55 20 -67 0 -12 20 -67 45
-121 25 -55 45 -105 45 -113 0 -18 37 -139 56 -182 8 -18 13 -36 10 -38 -5 -6
36 -127 56 -165 15 -27 55 -62 201 -177 45 -35 85 -69 90 -76 4 -8 24 -24 45
-36 81 -50 218 -154 245 -185 16 -19 34 -34 41 -34 7 0 29 -15 48 -32 19 -18
53 -45 75 -60 23 -15 54 -39 70 -53 70 -63 98 -85 110 -85 12 0 43 -23 79 -57
7 -7 16 -13 20 -13 3 0 52 -33 108 -72 212 -153 396 -272 653 -423 165 -97
198 -121 283 -205 101 -100 125 -121 159 -140 12 -6 19 -15 16 -19 -2 -5 6
-16 19 -24 12 -9 38 -30 56 -49 18 -18 49 -41 69 -50 20 -9 34 -20 31 -25 -3
-4 9 -13 27 -18 17 -6 45 -24 61 -40 36 -38 49 -46 146 -94 63 -31 84 -37 103
-30 15 6 31 5 42 -1 10 -5 21 -7 23 -4 3 2 17 -1 32 -7 19 -9 33 -9 49 -2 151
70 205 93 217 93 8 0 24 7 34 15 11 8 31 15 45 15 13 0 32 6 40 14 9 8 33 19
53 24 21 6 60 25 88 43 49 32 50 32 187 34 239 3 1000 66 1223 101 19 3 78 9
130 14 191 18 336 32 379 35 25 2 65 6 90 10 25 3 89 8 141 11 127 6 191 11
253 20 29 4 56 7 61 5 4 -1 22 3 40 8 29 10 79 13 396 26 152 6 262 20 292 36
11 6 37 12 57 14 38 4 159 36 176 47 6 3 31 9 58 13 26 4 50 11 53 16 3 5 16
9 30 9 13 0 41 9 61 20 21 11 44 20 51 20 8 0 25 9 39 20 14 11 41 22 62 26
20 4 42 11 50 17 7 6 21 16 31 22 9 5 30 19 46 30 25 18 40 20 159 15 264 -9
517 -3 630 14 160 24 275 46 294 56 14 7 82 23 148 34 44 8 187 60 208 76 6 4
25 10 43 14 43 8 302 134 302 146 0 6 5 10 11 10 13 0 90 53 144 100 100 87
275 277 275 298 0 5 33 58 73 118 41 60 81 129 89 154 39 108 41 112 68 106
92 -20 270 -27 359 -16 186 24 464 90 536 126 17 9 70 31 119 50 112 43 267
121 350 176 35 24 89 58 121 77 l56 33 -4 212 c-7 302 -22 463 -67 721 -10 61
-26 157 -35 215 -9 58 -32 182 -51 275 -19 94 -48 241 -64 327 -30 153 -97
379 -127 426 -27 43 -89 61 -245 72 -151 11 -365 1 -466 -20 -29 -7 -56 -10
-58 -7 -3 2 -1 73 3 156 6 118 5 151 -4 151 -7 0 -13 5 -13 10 0 6 5 10 11 10
7 0 9 11 6 30 -4 16 -2 32 3 35 6 3 10 35 10 70 0 37 5 67 11 71 8 5 6 10 -5
16 -16 9 -23 38 -8 38 4 0 6 30 4 68 -2 37 -4 78 -4 92 0 39 1 242 1 270 1 24
1 184 1 205 0 6 1 39 2 74 2 41 -1 69 -9 77 -10 9 -10 13 -1 16 9 3 9 20 0 74
-6 38 -14 125 -17 194 -4 94 -18 187 -55 375 -28 138 -57 273 -65 300 -30 100
-124 372 -153 440 -16 39 -48 115 -71 170 -23 55 -67 150 -97 212 -29 62 -54
114 -54 117 0 2 -25 47 -55 100 -30 52 -55 97 -55 101 0 18 -207 321 -374 545
-178 240 -366 440 -621 660 -137 118 -136 117 -111 142 7 8 16 23 20 35 4 11
15 28 26 38 11 10 20 26 20 35 0 9 4 20 9 26 22 23 91 166 91 187 0 13 3 27 8
31 4 4 7 11 7 14 1 4 10 25 22 47 43 84 65 241 69 490 4 251 -2 321 -48 510
-47 199 -64 258 -86 304 -12 25 -22 54 -22 66 0 12 -7 30 -15 41 -8 10 -15 24
-15 30 0 9 -34 74 -94 179 -19 34 -49 79 -71 106 -11 14 -27 36 -35 49 -19 29
-49 66 -77 96 -12 13 -36 43 -53 66 -17 24 -44 61 -60 82 -17 21 -30 45 -30
52 0 8 -6 14 -13 14 -7 0 -35 21 -60 48 -114 114 -166 151 -237 166 -14 3 -41
19 -60 36 -19 16 -40 30 -45 30 -6 0 -33 15 -61 33 -78 52 -186 97 -231 97
-11 0 -32 9 -46 20 -14 11 -33 20 -42 20 -9 0 -29 6 -43 14 -37 19 -171 59
-199 59 -13 0 -23 3 -23 8 0 5 -7 9 -16 9 -26 0 -157 31 -189 45 -16 8 -68 18
-115 24 -47 6 -110 15 -140 21 -66 13 -192 22 -280 22 -36 -1 -88 6 -115 13
-51 14 -80 16 -112 4z m-1298 -1739 c39 -13 88 -37 109 -52 21 -15 45 -28 53
-28 26 0 144 -114 193 -187 54 -80 94 -191 109 -303 6 -41 14 -93 17 -115 8
-54 16 -125 17 -155 1 -14 5 -27 9 -30 3 -3 9 -39 12 -80 9 -124 64 -340 112
-435 34 -68 171 -212 212 -222 15 -3 38 -14 51 -25 13 -10 32 -18 42 -18 24 0
122 -26 146 -38 17 -9 93 -17 273 -26 134 -8 156 -8 310 -1 80 3 158 6 174 5
15 0 35 5 42 11 8 6 24 9 36 6 12 -4 37 1 55 10 18 8 40 13 48 9 8 -3 28 -1
43 5 15 6 44 13 65 15 21 3 50 9 63 15 35 13 164 39 195 39 14 0 29 4 35 8 14
12 72 30 154 46 41 9 127 32 190 52 116 36 191 58 200 60 28 4 100 29 120 41
13 9 37 18 52 19 16 2 54 18 86 36 117 65 128 68 100 26 -30 -44 -140 -158
-154 -158 -7 0 -18 -9 -24 -20 -6 -10 -32 -34 -58 -52 -26 -17 -92 -68 -148
-112 -103 -83 -132 -105 -288 -216 -155 -110 -489 -278 -651 -328 -97 -30
-227 -54 -350 -66 -52 -6 -143 -19 -275 -41 -19 -3 -132 -10 -250 -15 -211
-10 -381 -3 -582 21 -46 5 -144 16 -218 24 -74 8 -153 19 -175 25 -22 5 -56
10 -75 10 -47 0 -252 70 -366 124 -145 69 -316 211 -391 326 -20 30 -53 73
-73 96 -100 110 -244 453 -281 669 -22 125 -51 332 -50 350 0 11 1 31 1 44 0
16 29 55 88 120 49 53 110 123 137 156 92 114 160 184 210 215 19 12 35 25 35
30 0 4 8 10 18 14 9 3 24 10 32 15 8 6 38 20 65 32 28 11 61 26 75 33 21 11
66 22 155 40 58 11 204 -2 270 -24z m-1369 -374 c3 -7 1 -56 -5 -108 -10 -105
2 -412 17 -431 12 -15 23 -88 23 -146 0 -25 4 -50 10 -57 5 -6 12 -29 14 -50
3 -22 9 -63 15 -93 5 -30 7 -57 5 -61 -3 -5 2 -10 10 -14 8 -3 15 -12 15 -21
0 -15 -25 -14 -70 2 -8 3 -37 7 -65 8 -178 7 -300 18 -370 33 -136 29 -644 16
-860 -21 -120 -21 -237 -48 -265 -62 -27 -13 -99 -30 -114 -26 -36 9 -278 -99
-353 -157 -48 -37 -124 -98 -146 -117 -15 -14 -28 -15 -80 -6 -34 6 -81 13
-105 16 -24 3 -69 14 -100 25 -31 11 -71 20 -89 20 -17 0 -34 4 -37 9 -5 8
-40 14 -150 26 -17 2 -42 6 -56 10 -14 3 -47 8 -75 10 -27 3 -68 8 -90 10 -22
3 -104 5 -182 5 -81 0 -143 5 -143 10 0 5 21 26 47 47 26 21 56 47 67 58 12
11 38 29 59 40 21 11 51 32 68 47 17 16 42 31 57 35 15 3 76 32 137 64 60 32
155 76 210 98 55 21 142 58 194 81 52 23 151 62 220 87 69 25 131 48 136 53 6
4 24 10 40 14 17 4 52 18 78 32 27 13 56 24 66 24 9 0 25 6 36 14 11 7 23 14
28 15 25 3 65 16 87 27 36 18 475 159 611 195 126 34 164 43 259 65 36 8 94
24 130 34 36 11 99 29 140 40 41 12 104 31 140 42 65 20 152 41 245 58 28 6
64 14 80 19 46 14 105 13 111 -3z m-536 -1131 c63 -3 153 -10 200 -15 47 -5
121 -12 165 -15 106 -8 131 -12 189 -25 27 -6 65 -12 85 -14 47 -5 111 -33
111 -49 0 -6 16 -34 35 -62 20 -27 48 -68 63 -90 79 -117 130 -185 171 -228
96 -101 148 -150 196 -187 28 -21 59 -46 71 -56 11 -11 42 -31 70 -45 27 -14
67 -35 89 -47 163 -85 262 -123 442 -167 172 -43 231 -54 453 -86 76 -10 589
-14 775 -5 220 11 322 17 355 23 19 3 46 7 60 9 105 15 374 70 463 95 215 61
479 189 789 384 108 68 288 201 377 280 76 67 136 113 152 116 36 6 90 -33
263 -191 46 -41 122 -110 170 -154 82 -74 133 -130 304 -334 151 -182 189
-230 242 -316 30 -48 69 -106 85 -128 17 -23 33 -47 38 -54 4 -8 12 -22 17
-31 6 -10 15 -29 20 -43 10 -24 26 -59 65 -140 9 -19 32 -64 50 -100 19 -36
35 -69 35 -75 0 -9 23 -63 116 -272 13 -28 27 -72 66 -208 6 -22 15 -45 20
-51 5 -6 11 -33 13 -59 3 -26 8 -51 11 -56 6 -10 11 -35 18 -92 3 -21 9 -43
13 -50 4 -6 8 -14 8 -17 1 -3 8 -39 18 -80 9 -41 16 -82 15 -90 -2 -8 3 -35
11 -60 49 -168 48 -162 56 -355 4 -77 9 -158 11 -180 11 -124 12 -260 1 -267
-9 -6 -8 -10 2 -17 8 -5 12 -18 8 -30 -3 -12 -2 -35 3 -51 5 -17 5 -30 1 -30
-4 0 -8 -7 -8 -15 0 -8 4 -12 7 -10 4 3 6 -10 5 -28 -2 -17 -4 -32 -5 -32 0 0
-2 -24 -3 -53 -1 -28 1 -52 4 -52 3 0 3 -20 -1 -45 -4 -24 -4 -42 -1 -40 4 2
6 -80 5 -182 -1 -134 -5 -188 -14 -193 -8 -5 -9 -10 -2 -14 6 -3 11 -23 11
-44 0 -20 2 -51 5 -69 2 -17 0 -50 -5 -73 -7 -32 -19 -184 -19 -252 0 -4 -19
-12 -42 -18 -48 -12 -86 -28 -311 -131 -87 -40 -160 -76 -163 -80 -2 -5 -42
-30 -87 -58 -94 -57 -187 -147 -187 -183 0 -29 -15 -52 -28 -44 -6 3 -23 1
-39 -5 -15 -7 -59 -13 -98 -14 -38 -2 -86 -6 -105 -11 -19 -4 -48 -7 -65 -6
-16 1 -48 1 -70 1 -53 -2 -115 -1 -140 1 -11 0 -58 -2 -105 -6 -47 -4 -148 -9
-225 -11 -290 -8 -421 -13 -455 -19 -19 -4 -199 -7 -400 -8 -289 -2 -378 0
-430 12 -36 8 -67 17 -70 21 -3 3 -18 7 -35 7 -16 1 -43 5 -60 8 -41 10 -141
35 -190 48 -22 6 -48 10 -57 10 -10 0 -18 3 -18 8 0 5 -32 16 -72 25 -39 9
-76 19 -82 23 -6 4 -13 7 -16 7 -15 2 -61 20 -107 41 -28 13 -57 24 -63 24 -6
0 -46 18 -87 40 -42 22 -81 40 -86 40 -32 0 -241 114 -457 248 -36 23 -95 59
-132 82 -38 22 -68 47 -68 55 0 7 7 26 15 42 27 53 85 199 85 215 0 10 4 27 9
40 5 13 14 50 21 83 6 33 16 68 21 78 9 17 12 248 4 366 -2 35 -9 67 -15 71
-6 4 -16 43 -21 86 -5 43 -12 86 -16 94 -3 8 -7 22 -8 30 -1 8 -6 31 -10 50
-5 19 -9 37 -10 40 -7 33 -69 181 -106 252 -10 20 -19 42 -19 48 0 22 -34 85
-67 126 -18 23 -33 47 -33 53 0 25 -144 191 -166 191 -5 0 -22 14 -38 30 -16
17 -34 30 -40 30 -6 0 -37 25 -69 55 -31 30 -66 55 -77 55 -10 0 -25 7 -34 15
-8 9 -31 22 -50 30 -19 8 -38 20 -42 26 -3 6 -27 20 -52 31 -24 11 -72 38
-105 59 -34 22 -73 43 -86 46 -14 4 -46 18 -71 33 -90 53 -341 169 -422 195
-118 38 -331 116 -343 125 -5 4 -28 13 -50 20 -22 7 -71 28 -110 46 -38 19
-75 34 -82 34 -7 0 -27 6 -45 14 -118 51 -162 67 -238 87 -47 12 -119 37 -161
55 -42 19 -107 41 -145 49 -37 9 -93 27 -125 40 -32 13 -138 46 -236 75 -98
28 -196 58 -218 67 -142 55 -211 86 -291 131 -51 29 -107 55 -125 59 -19 3
-38 12 -42 20 -4 7 -16 13 -26 13 -11 0 -42 16 -71 35 -29 19 -54 35 -55 35
-2 0 -18 13 -36 29 -18 17 -36 29 -41 28 -9 -2 -91 69 -160 138 -22 22 -49 57
-59 78 -11 20 -24 37 -29 37 -6 0 -10 7 -10 16 0 8 -6 22 -14 29 -16 16 -29
132 -21 183 10 60 44 162 77 229 34 70 93 153 110 153 6 0 27 19 48 43 21 23
62 56 91 72 30 15 56 31 59 35 22 29 363 165 518 207 53 14 125 29 160 34 35
5 66 10 70 13 4 2 57 7 117 11 61 4 112 9 115 12 3 2 57 2 120 -1 63 -3 167
-8 230 -11z m-2610 -180 c125 -11 456 -67 487 -83 10 -5 41 -12 68 -15 28 -3
69 -15 92 -26 23 -12 55 -21 70 -21 15 0 37 -7 47 -15 11 -8 32 -15 47 -15 37
0 47 -19 21 -39 -38 -30 -96 -165 -139 -321 -33 -119 -36 -259 -9 -334 42
-116 216 -320 357 -419 30 -21 90 -63 133 -93 44 -31 125 -76 180 -101 56 -25
124 -55 151 -68 108 -50 278 -115 440 -168 232 -75 368 -117 381 -117 6 0 58
-16 117 -35 59 -19 146 -43 194 -55 49 -11 111 -31 138 -45 28 -14 118 -49
200 -79 362 -130 410 -148 421 -157 6 -5 40 -19 75 -30 35 -12 82 -31 104 -44
22 -12 69 -32 105 -44 36 -12 114 -48 174 -80 l110 -58 13 -59 c7 -32 17 -68
23 -79 5 -11 23 -60 40 -110 41 -126 67 -195 78 -208 5 -7 24 -50 42 -97 17
-46 38 -93 46 -104 8 -11 14 -33 14 -47 0 -15 9 -48 20 -74 11 -26 20 -55 20
-66 0 -10 9 -34 20 -54 11 -19 20 -37 20 -40 1 -3 7 -20 15 -39 28 -65 24 -74
-63 -143 -26 -21 -74 -63 -108 -93 -55 -51 -178 -140 -193 -140 -3 0 -22 -15
-42 -33 -20 -18 -58 -51 -85 -72 -27 -22 -66 -56 -86 -76 -20 -20 -76 -63
-125 -95 -48 -32 -106 -75 -128 -94 -49 -44 -183 -153 -246 -200 -26 -19 -85
-67 -130 -105 -46 -39 -122 -100 -169 -137 -47 -36 -121 -98 -165 -138 -44
-40 -122 -104 -172 -142 -51 -39 -93 -74 -93 -78 0 -3 -12 -13 -27 -20 -16 -8
-43 -25 -61 -38 l-32 -23 -58 32 c-31 18 -73 44 -92 59 -42 32 -212 125 -222
122 -9 -2 -74 41 -111 73 -15 14 -33 25 -41 25 -7 0 -33 16 -59 36 -25 20 -50
33 -56 30 -5 -4 -25 6 -43 22 -18 16 -82 57 -143 92 -60 34 -122 73 -136 85
-15 12 -42 28 -60 35 -19 7 -53 28 -76 47 -23 18 -46 33 -51 33 -5 0 -17 9
-27 20 -10 11 -22 20 -27 20 -5 0 -28 15 -51 34 -23 18 -58 41 -77 51 -19 10
-60 34 -90 54 -30 21 -75 48 -100 61 -48 26 -123 69 -180 105 -74 47 -271 155
-282 155 -6 0 -36 17 -67 37 -65 43 -120 73 -137 73 -6 0 -19 9 -29 20 -10 12
-24 19 -31 16 -7 -3 -15 1 -17 9 -6 14 -133 85 -153 85 -6 0 -24 16 -38 35
-15 19 -33 35 -40 35 -7 0 -31 12 -52 28 -21 15 -51 33 -66 41 -16 8 -28 18
-28 23 0 4 -6 8 -14 8 -8 0 -27 11 -43 24 -15 13 -75 48 -133 77 -58 29 -125
65 -150 80 -25 15 -74 40 -110 55 -36 15 -72 33 -80 40 -8 6 -44 24 -80 39
-36 15 -78 37 -95 49 -16 12 -55 32 -85 46 -30 13 -62 30 -71 37 -8 7 -20 13
-26 13 -6 0 -13 3 -15 8 -1 4 -19 15 -39 24 l-37 17 34 138 c19 76 40 161 48
188 8 28 18 75 21 105 4 30 16 96 27 145 11 50 28 131 39 180 18 87 54 223 97
370 11 39 34 117 51 174 17 57 39 123 51 147 11 24 20 50 20 58 0 8 5 18 10
21 6 3 10 13 10 22 0 8 6 29 14 46 14 33 34 87 56 147 6 19 23 64 37 100 13
36 28 79 34 97 5 18 16 45 24 60 8 15 15 32 15 37 0 5 18 46 40 92 22 46 40
88 40 94 0 6 7 21 15 33 8 13 16 32 18 42 2 11 10 34 17 50 7 17 31 71 53 120
21 50 58 131 82 180 24 50 59 133 80 185 20 52 46 106 58 119 24 25 10 25 237
6z m4273 -2601 c93 -47 136 -78 222 -160 39 -37 94 -84 123 -106 29 -22 58
-51 65 -66 6 -15 21 -40 32 -57 69 -98 192 -404 211 -522 9 -58 -9 -65 -111
-43 -44 10 -109 23 -145 30 -97 17 -142 45 -161 100 -47 133 -71 194 -83 210
-20 26 -35 64 -46 115 -6 28 -17 59 -24 70 -7 11 -23 48 -35 83 -13 34 -28 65
-32 68 -5 3 -9 13 -9 22 0 9 -6 28 -13 42 -7 14 -19 46 -26 72 -8 26 -20 53
-27 59 -8 6 -14 22 -14 36 0 13 -7 37 -15 53 -14 27 -14 30 0 30 9 0 48 -16
88 -36z m-5373 -590 c19 -9 44 -25 55 -35 11 -10 37 -25 57 -33 20 -9 39 -20
43 -26 4 -6 21 -17 38 -25 18 -8 48 -25 67 -36 38 -24 164 -95 249 -141 29
-16 62 -38 73 -48 11 -10 34 -24 52 -31 17 -7 59 -33 94 -56 34 -24 83 -55
110 -69 26 -14 76 -47 112 -74 36 -28 84 -59 107 -69 22 -11 45 -26 50 -34 4
-7 15 -17 23 -20 8 -4 29 -16 45 -26 17 -11 38 -20 47 -20 9 -1 30 -13 45 -27
15 -15 60 -42 98 -61 69 -34 118 -60 185 -101 19 -12 51 -30 70 -41 19 -11 66
-42 105 -70 38 -28 73 -51 78 -51 5 0 23 -11 41 -25 18 -14 38 -25 44 -25 6 0
26 -13 44 -28 18 -16 47 -36 63 -44 59 -30 130 -72 143 -85 7 -7 20 -13 27
-13 8 0 18 -6 22 -14 9 -16 146 -99 181 -110 12 -4 27 -16 32 -27 6 -10 19
-19 29 -19 10 0 21 -8 23 -17 3 -10 55 -45 121 -80 63 -35 142 -80 174 -102
32 -21 83 -51 113 -66 79 -40 193 -110 223 -137 14 -13 47 -34 74 -48 26 -13
71 -39 100 -57 29 -18 56 -33 61 -33 4 0 18 -14 31 -30 22 -30 22 -35 19 -273
l-3 -242 -65 -12 c-36 -6 -92 -14 -125 -17 -150 -13 -172 -18 -201 -46 l-29
-27 -65 32 c-36 18 -107 60 -158 94 -135 89 -241 122 -459 141 -88 8 -111 6
-169 -10 -90 -26 -132 -54 -195 -130 -166 -199 -216 -306 -244 -520 -24 -186
1 -343 95 -600 17 -47 40 -112 51 -144 69 -200 171 -426 262 -574 80 -133 230
-353 276 -405 28 -32 51 -60 51 -62 0 -10 -69 44 -111 85 -65 66 -216 189
-264 216 -16 9 -34 22 -41 28 -6 6 -22 18 -34 26 -12 8 -59 45 -104 83 -44 37
-117 92 -161 123 -44 30 -100 70 -125 89 -25 18 -49 34 -53 34 -4 1 -38 25
-75 54 -37 29 -92 69 -122 90 -30 21 -100 73 -155 115 l-99 78 -26 86 c-14 48
-29 90 -33 94 -4 4 -7 16 -7 26 0 11 -11 38 -24 61 -28 48 -96 246 -96 277 0
12 -9 42 -19 68 -11 26 -22 71 -25 101 -3 29 -9 58 -14 65 -5 6 -17 40 -27 76
-9 36 -20 70 -23 75 -4 6 -14 37 -23 70 -9 33 -28 92 -41 130 -35 99 -101 320
-137 455 -16 63 -39 142 -51 175 -11 33 -23 72 -26 87 -3 15 -23 71 -45 125
-22 54 -47 127 -54 163 -15 69 -40 151 -136 447 -60 186 -77 244 -135 463 -18
69 -42 157 -53 195 -51 170 -78 279 -91 365 -6 41 -15 100 -20 130 -23 141
-23 131 2 121 13 -5 39 -17 58 -27z m5700 -531 c14 -7 35 -13 48 -13 13 0 74
-12 135 -26 62 -14 127 -26 145 -25 l32 0 2 -57 c6 -164 -37 -375 -105 -507
-31 -63 -114 -182 -166 -238 -25 -29 -56 -66 -69 -84 -20 -29 -153 -152 -279
-259 -26 -23 -75 -58 -108 -79 -33 -21 -74 -50 -92 -64 -17 -14 -61 -44 -98
-66 -37 -22 -90 -55 -118 -74 -29 -18 -70 -40 -92 -47 -21 -8 -46 -21 -55 -28
-18 -17 -202 -106 -217 -106 -5 0 -21 -9 -35 -19 -25 -20 -84 -46 -198 -86
-36 -13 -117 -42 -180 -65 -138 -50 -177 -61 -509 -140 -24 -6 -69 -13 -101
-17 l-58 -6 -6 39 c-3 22 -8 122 -11 224 l-6 186 48 40 c26 22 98 74 158 116
61 42 119 86 130 98 32 35 165 143 226 183 31 20 92 68 135 105 43 37 95 79
114 92 64 44 203 154 255 202 29 26 90 71 137 100 47 29 139 96 204 149 65 53
151 118 189 144 39 26 89 64 111 85 23 21 84 70 135 108 52 39 112 89 134 112
38 39 43 41 90 39 28 -2 61 -9 75 -16z m5804 -973 c15 -5 31 -21 38 -35 16
-35 0 -60 -75 -117 -72 -54 -396 -223 -447 -233 -19 -4 -75 -19 -125 -35 -239
-75 -710 -105 -747 -48 -19 30 -8 73 25 99 76 61 306 184 407 218 36 12 74 26
85 32 20 9 93 29 195 55 69 17 242 46 295 49 101 6 210 16 214 20 8 9 110 5
135 -5z m-5417 -117 c37 -20 77 -44 88 -54 11 -10 72 -44 135 -77 63 -33 178
-92 255 -132 140 -73 192 -96 295 -130 30 -9 78 -29 105 -43 73 -38 152 -65
425 -143 210 -60 302 -66 1045 -66 603 -1 1250 8 1264 16 3 2 47 7 98 11 105
7 95 15 108 -90 4 -27 13 -65 20 -85 7 -19 19 -73 25 -120 6 -47 15 -94 20
-105 13 -33 30 -96 45 -170 7 -38 19 -90 26 -115 6 -25 23 -88 36 -140 14 -52
44 -156 68 -230 24 -74 56 -173 71 -220 15 -47 51 -148 81 -225 29 -77 53
-145 53 -152 0 -7 -30 -70 -67 -140 -134 -258 -364 -520 -558 -638 -16 -10
-39 -26 -50 -35 -20 -16 -48 -29 -160 -71 -33 -12 -78 -30 -100 -40 -23 -10
-54 -20 -70 -24 -17 -4 -39 -10 -50 -15 -40 -16 -128 -40 -147 -40 -11 0 -29
-5 -41 -11 -12 -7 -43 -13 -70 -15 -27 -2 -54 -7 -60 -12 -17 -14 -70 -23
-162 -28 -44 -2 -98 -8 -121 -14 -22 -5 -91 -9 -153 -9 l-113 1 51 36 c27 21
55 50 62 65 7 16 24 36 38 45 24 16 73 64 168 165 23 24 47 56 53 71 5 14 14
26 20 26 5 0 10 6 10 14 0 8 15 32 33 55 69 87 79 102 74 108 -4 3 5 14 19 25
13 11 31 34 39 51 8 18 24 46 35 62 11 17 23 37 26 45 22 55 33 90 28 90 -4 0
-1 6 5 13 6 8 8 16 5 20 -3 3 -1 21 6 41 6 19 13 47 16 62 3 16 9 33 13 39 10
12 10 5 16 210 3 94 10 183 15 199 7 20 6 33 -1 42 -6 8 -7 14 -2 14 11 0 8
188 -5 240 -5 23 -17 40 -36 50 -27 15 -28 14 -62 -25 -48 -54 -64 -79 -69
-104 -3 -11 -7 -30 -9 -40 -3 -11 -9 -28 -14 -38 -6 -10 -20 -79 -31 -153 -35
-227 -58 -343 -80 -400 -75 -203 -122 -309 -167 -380 -61 -95 -186 -250 -212
-264 -15 -8 -36 -24 -47 -36 -35 -40 -200 -157 -330 -235 -75 -46 -275 -145
-292 -145 -4 0 -52 -18 -105 -40 -53 -22 -112 -42 -130 -45 -31 -5 -117 -22
-323 -65 -124 -26 -249 -47 -385 -65 -63 -9 -149 -22 -190 -30 -73 -15 -207
-31 -320 -40 -58 -5 -127 -15 -278 -40 -51 -9 -135 -20 -185 -25 -51 -6 -117
-15 -147 -21 -30 -5 -84 -12 -119 -15 -35 -2 -84 -7 -110 -10 -90 -12 -267
-28 -431 -39 -47 -3 -132 -10 -190 -16 -106 -10 -162 -14 -300 -23 -41 -3 -88
-8 -105 -11 -16 -3 -50 -7 -75 -9 -25 -3 -70 -7 -100 -10 l-55 -6 -24 49 c-13
28 -35 62 -48 77 -13 15 -23 32 -23 39 0 6 -25 51 -56 101 -32 49 -83 141
-116 204 -32 63 -74 143 -93 178 -89 166 -319 660 -365 784 -16 42 -42 103
-58 135 -59 117 -165 442 -236 723 -62 247 -86 359 -84 401 l2 37 60 7 c34 4
81 9 106 11 25 2 97 8 160 14 63 5 135 12 160 15 232 27 298 36 380 53 215 47
242 53 258 62 9 5 44 13 76 19 33 6 67 18 76 26 9 8 22 15 28 15 7 0 29 9 49
20 21 11 46 20 55 20 10 0 18 5 18 10 0 6 5 10 11 10 6 0 17 7 25 15 9 8 27
15 42 15 34 0 179 73 208 105 12 13 38 27 57 30 20 4 38 13 40 20 3 6 22 15
42 18 20 3 44 15 53 25 18 20 97 62 118 62 22 0 64 23 64 35 0 6 18 19 41 29
22 10 43 24 46 32 3 8 15 14 27 14 12 0 40 13 62 30 21 16 44 30 49 30 6 0 16
9 23 20 7 11 17 20 23 20 6 0 20 12 32 26 11 14 38 34 61 44 23 9 77 53 121
97 44 44 94 89 111 99 18 11 53 45 78 76 44 54 82 88 98 88 4 0 38 -16 75 -37z
m5609 -149 c1 -10 3 -21 4 -24 1 -3 4 -18 6 -35 11 -96 24 -177 39 -225 8 -30
18 -77 21 -105 3 -27 8 -54 11 -58 3 -5 16 -65 30 -135 34 -177 68 -461 119
-1013 6 -59 4 -70 -17 -98 -41 -56 -203 -142 -394 -211 -328 -117 -505 -164
-682 -179 -244 -22 -281 -15 -318 60 -50 98 -112 265 -174 469 -21 69 -54 177
-74 241 -38 123 -111 430 -122 514 -3 28 -12 86 -20 130 -7 44 -14 87 -14 95
0 8 -3 29 -6 45 -20 99 -12 118 43 96 69 -28 380 -30 482 -3 41 11 100 23 130
27 30 4 66 13 80 20 14 6 72 25 130 40 58 15 109 32 114 36 6 5 17 9 26 9 21
0 47 12 219 99 181 92 212 111 272 171 64 64 92 74 95 34z m-9251 -814 c22
-11 48 -19 57 -20 9 0 20 -5 24 -11 3 -6 21 -18 38 -25 17 -8 49 -26 71 -39
45 -27 66 -38 145 -73 30 -13 72 -33 92 -44 21 -10 41 -19 45 -19 12 1 23 -50
17 -76 -4 -13 1 -53 10 -90 8 -38 27 -120 42 -183 14 -63 37 -155 50 -205 13
-49 29 -110 35 -135 34 -133 208 -598 329 -875 9 -23 68 -151 123 -268 38 -81
193 -359 255 -457 19 -30 64 -98 98 -151 35 -53 64 -99 64 -101 0 -3 27 -46
60 -96 33 -51 60 -101 60 -112 0 -30 -36 -59 -126 -104 -67 -33 -92 -41 -164
-46 -84 -6 -86 -6 -160 32 -41 21 -109 66 -150 99 -41 34 -113 87 -160 119
-47 31 -92 65 -100 75 -8 10 -44 42 -80 70 -62 50 -104 91 -394 388 -201 205
-387 454 -472 632 -14 28 -47 88 -74 135 -69 118 -154 295 -201 420 -22 58
-51 132 -64 165 -26 66 -60 211 -75 320 -31 233 120 579 285 652 102 44 253
55 320 23z"/>
<path d="M7726 11366 c-87 -27 -129 -76 -150 -173 -9 -40 40 -115 78 -119 30
-3 32 3 10 27 -20 22 -12 48 24 84 41 42 69 49 99 26 65 -52 132 -170 127
-227 -1 -17 2 -37 6 -45 10 -15 -17 -69 -57 -116 -24 -28 -37 -34 -88 -39 -77
-8 -105 -25 -105 -65 0 -82 72 -134 183 -132 46 1 74 7 85 17 10 8 29 19 45
25 15 6 27 17 27 25 0 8 11 23 25 34 14 11 25 24 25 29 0 5 9 17 21 26 11 10
18 25 15 32 -3 8 -1 17 4 20 6 4 10 17 10 30 0 13 4 26 8 29 10 6 6 97 -6 187
-13 97 -95 235 -153 260 -16 6 -33 17 -37 24 -9 15 -99 65 -115 64 -7 -1 -43
-11 -81 -23z"/>
<path d="M7040 10979 c-36 -14 -66 -46 -91 -93 -18 -35 -20 -51 -15 -105 12
-117 37 -145 139 -157 47 -6 56 -3 85 20 45 39 94 143 95 204 1 64 -27 113
-73 129 -42 14 -106 15 -140 2z"/>
<path d="M11375 8535 c-21 -12 -41 -28 -43 -34 -6 -18 23 -13 51 9 14 11 30
20 36 20 12 0 15 17 4 23 -5 2 -26 -6 -48 -18z"/>
<path d="M11540 8518 c-16 -18 -30 -38 -30 -44 0 -7 -3 -20 -7 -30 -4 -11 -2
-15 7 -12 8 2 18 19 22 36 10 38 42 59 64 41 8 -6 18 -8 22 -4 4 4 1 10 -6 12
-7 3 -19 11 -27 20 -13 13 -18 10 -45 -19z"/>
<path d="M11240 8470 c0 -5 6 -10 14 -10 8 0 18 5 21 10 3 6 -3 10 -14 10 -12
0 -21 -4 -21 -10z"/>
<path d="M11650 8470 c0 -5 5 -10 10 -10 6 0 10 5 10 10 0 6 -4 10 -10 10 -5
0 -10 -4 -10 -10z"/>
<path d="M11810 8441 c0 -5 12 -16 28 -24 15 -8 40 -21 56 -30 16 -9 33 -14
37 -11 13 8 -2 34 -20 34 -9 0 -31 9 -49 20 -35 22 -52 25 -52 11z"/>
<path d="M11175 8414 c-28 -26 -28 -47 0 -24 16 13 39 50 32 50 -2 0 -16 -11
-32 -26z"/>
<path d="M11705 8410 c-3 -5 1 -10 9 -10 9 0 16 5 16 10 0 6 -4 10 -9 10 -6 0
-13 -4 -16 -10z"/>
<path d="M11086 8361 c-4 -7 -5 -15 -2 -18 9 -9 19 4 14 18 -4 11 -6 11 -12 0z"/>
<path d="M11763 8339 c-13 -13 -6 -46 12 -53 8 -3 19 2 26 10 10 12 9 19 -7
35 -14 14 -23 16 -31 8z"/>
<path d="M11511 8270 c0 -16 22 -50 33 -50 11 0 6 14 -14 40 -13 16 -20 20
-19 10z"/>
<path d="M11800 8250 c0 -21 -5 -30 -16 -30 -13 0 -11 -6 9 -24 15 -14 34 -26
44 -28 10 -2 19 -12 21 -24 2 -16 -5 -23 -33 -32 -20 -6 -43 -8 -51 -5 -10 4
-17 -2 -21 -15 -3 -13 -22 -28 -49 -39 -47 -19 -57 -33 -24 -33 20 0 55 18
129 64 22 15 47 26 54 26 18 0 47 -32 47 -52 0 -9 6 -21 14 -27 21 -18 42 21
23 41 -8 7 -16 28 -20 46 -6 28 -3 34 18 44 13 6 29 24 35 41 15 43 13 52 -8
34 -26 -23 -42 -21 -42 6 -1 22 -1 22 -16 2 -8 -11 -12 -30 -9 -42 3 -13 1
-23 -5 -23 -5 0 -10 7 -10 16 0 12 -7 15 -25 12 -29 -6 -48 11 -35 31 11 18 2
41 -16 41 -9 0 -14 -11 -14 -30z"/>
<path d="M11940 8260 c0 -5 5 -10 10 -10 6 0 10 5 10 10 0 6 -4 10 -10 10 -5
0 -10 -4 -10 -10z"/>
<path d="M11620 8200 c0 -5 7 -7 15 -4 8 4 15 8 15 10 0 2 -7 4 -15 4 -8 0
-15 -4 -15 -10z"/>
<path d="M11530 8143 c-46 -32 -52 -48 -14 -39 36 9 72 42 59 54 -6 6 -24 -1
-45 -15z"/>
<path d="M12236 8162 c-3 -5 1 -17 8 -27 7 -10 15 -14 19 -9 3 5 -1 17 -8 27
-7 10 -16 14 -19 9z"/>
<path d="M11377 8044 c-4 -25 12 -84 23 -84 4 0 17 11 30 25 l23 24 -27 10
c-16 7 -26 18 -26 31 0 29 -17 25 -23 -6z"/>
<path d="M10844 7952 c-37 -47 -78 -150 -61 -152 11 -1 57 55 57 69 0 7 9 29
20 51 32 63 23 82 -16 32z"/>
<path d="M11948 7955 c-10 -13 -18 -29 -18 -34 0 -6 -5 -11 -11 -11 -17 0 -4
-105 17 -134 33 -44 78 -27 67 26 -4 23 -1 33 16 44 29 21 27 58 -4 78 -14 9
-25 25 -25 36 0 27 -21 25 -42 -5z"/>
<path d="M11421 7957 c-9 -12 -2 -16 41 -25 29 -5 56 -8 60 -5 17 10 6 22 -24
28 -18 4 -40 9 -49 11 -9 2 -21 -2 -28 -9z"/>
<path d="M12027 7833 c-14 -13 -6 -33 12 -33 19 0 35 23 24 34 -8 8 -28 8 -36
-1z"/>
<path d="M10750 7731 c-7 -14 -7 -22 0 -26 13 -8 40 13 40 31 0 21 -28 17 -40
-5z"/>
<path d="M11970 7665 c-5 -14 -10 -29 -10 -33 0 -4 -9 -13 -20 -20 -22 -14
-27 -32 -7 -32 23 1 68 50 70 76 3 36 -20 42 -33 9z"/>
<path d="M10733 7664 c-15 -29 -24 -74 -15 -74 4 0 18 13 30 29 18 24 19 31 8
47 -13 17 -14 17 -23 -2z"/>
<path d="M11840 7565 c-7 -9 -10 -18 -7 -21 7 -8 47 14 47 26 0 15 -26 12 -40
-5z"/>
<path d="M10711 7542 c-13 -25 -14 -52 -2 -52 10 0 26 58 18 67 -3 2 -10 -4
-16 -15z"/>
<path d="M11815 7505 c-10 -16 -33 -46 -50 -66 -40 -47 -74 -91 -85 -108 -11
-18 -2 -41 16 -41 8 0 14 -5 14 -11 0 -6 -7 -9 -15 -5 -16 6 -53 -40 -41 -51
3 -4 0 -13 -8 -22 -8 -9 -16 -25 -18 -36 -5 -34 33 -25 51 12 11 23 21 31 34
27 10 -3 19 1 22 10 3 9 8 24 11 34 4 9 6 38 5 63 -2 34 2 48 13 52 9 4 16 15
16 26 0 12 11 28 25 37 14 9 22 20 19 26 -3 5 0 15 6 23 6 8 10 24 8 37 -3 22
-4 22 -23 -7z"/>
<path d="M11877 7457 c-23 -29 -2 -37 24 -9 22 25 24 32 7 32 -7 0 -21 -10
-31 -23z"/>
<path d="M12060 7460 c0 -5 5 -10 10 -10 6 0 10 5 10 10 0 6 -4 10 -10 10 -5
0 -10 -4 -10 -10z"/>
<path d="M12050 7424 c0 -8 5 -12 10 -9 6 4 8 11 5 16 -9 14 -15 11 -15 -7z"/>
<path d="M10695 7389 c-9 -26 10 -48 26 -32 12 12 3 53 -11 53 -5 0 -12 -9
-15 -21z"/>
<path d="M10737 7259 c4 -13 8 -18 11 -10 2 7 -1 18 -6 23 -8 8 -9 4 -5 -13z"/>
<path d="M10748 7205 c-3 -14 1 -33 8 -42 12 -16 15 -16 24 -3 13 20 13 24 -9
49 l-19 21 -4 -25z"/>
<path d="M11675 7144 c-9 -14 -14 -28 -11 -31 8 -9 46 27 46 44 0 21 -16 15
-35 -13z"/>
<path d="M10801 7069 c5 -11 14 -17 20 -14 15 10 10 22 -11 28 -17 4 -18 2 -9
-14z"/>
<path d="M11603 7050 c-12 -31 -2 -49 15 -27 5 6 13 22 16 35 11 34 -17 28
-31 -8z"/>
<path d="M12167 7061 l-29 -18 29 -1 c29 0 53 13 53 29 0 15 -23 10 -53 -10z"/>
<path d="M12077 7043 c-12 -12 -7 -22 8 -17 8 4 15 10 15 15 0 11 -14 12 -23
2z"/>
<path d="M11727 7024 c-16 -16 -6 -35 16 -32 12 2 22 10 22 18 0 16 -26 25
-38 14z"/>
<path d="M10850 6990 c0 -5 5 -10 10 -10 6 0 10 5 10 10 0 6 -4 10 -10 10 -5
0 -10 -4 -10 -10z"/>
<path d="M11581 6982 c-19 -36 -13 -60 20 -78 26 -13 37 -14 57 -4 28 12 20
27 -18 32 -18 2 -26 10 -28 28 -5 36 -18 45 -31 22z"/>
<path d="M11889 6980 c-15 -11 -49 -23 -75 -26 -53 -7 -104 -29 -104 -44 0
-14 23 -13 37 1 7 7 43 11 86 11 69 -1 75 1 85 23 6 13 20 26 32 30 11 3 18
11 15 16 -10 15 -48 10 -76 -11z"/>
<path d="M12058 6924 c-4 -3 -14 -7 -25 -9 -10 -2 -20 -4 -23 -5 -6 -1 71 -30
81 -30 14 0 19 34 7 42 -15 9 -32 10 -40 2z"/>
<path d="M10907 6893 c-4 -3 -7 -15 -7 -25 0 -13 7 -18 25 -18 27 0 33 18 13
38 -14 14 -22 15 -31 5z"/>
<path d="M11010 6666 c0 -15 12 -33 33 -49 44 -34 72 -38 72 -12 0 12 -8 21
-20 23 -11 1 -28 16 -37 32 -21 37 -48 40 -48 6z"/>
<path d="M4330 13168 c-46 -59 -90 -133 -100 -168 -16 -62 -1 -150 26 -150 17
0 17 5 2 33 -20 36 -10 138 15 167 13 14 38 48 57 75 19 28 38 52 42 53 13 6
9 22 -4 21 -7 0 -24 -14 -38 -31z"/>
<path d="M4270 12818 c0 -16 72 -68 93 -68 8 0 20 -6 26 -13 6 -8 26 -15 43
-17 47 -4 277 -5 313 -1 24 3 111 -5 135 -13 3 0 7 4 9 9 11 29 -101 46 -214
31 -135 -17 -275 0 -287 35 -2 6 -19 13 -36 14 -18 2 -41 10 -51 19 -21 19
-31 20 -31 4z"/>
<path d="M3455 12769 c-33 -20 -51 -57 -36 -72 6 -6 12 -1 16 16 10 40 41 61
83 59 20 -2 33 1 28 5 -14 14 -61 10 -91 -8z"/>
<path d="M3560 12772 c0 -4 9 -13 20 -20 23 -14 26 -7 6 14 -16 15 -26 18 -26
6z"/>
<path d="M4200 12740 c0 -5 5 -10 11 -10 5 0 7 5 4 10 -3 6 -8 10 -11 10 -2 0
-4 -4 -4 -10z"/>
<path d="M3625 12730 c-3 -5 -1 -10 4 -10 6 0 11 5 11 10 0 6 -2 10 -4 10 -3
0 -8 -4 -11 -10z"/>
<path d="M4407 12703 c-4 -3 -7 -11 -7 -17 0 -6 5 -5 12 2 6 6 9 14 7 17 -3 3
-9 2 -12 -2z"/>
<path d="M4230 12694 c0 -9 63 -98 74 -106 26 -18 23 -4 -12 47 -32 47 -62 76
-62 59z"/>
<path d="M3408 12675 c-7 -7 10 -138 19 -144 5 -3 14 -18 22 -33 8 -16 20 -28
28 -28 18 0 17 10 -9 61 -28 54 -32 71 -37 132 -1 16 -12 22 -23 12z"/>
<path d="M4414 12644 c3 -9 6 -18 6 -20 0 -2 5 -4 10 -4 6 0 10 9 10 20 0 12
-7 20 -16 20 -11 0 -14 -5 -10 -16z"/>
<path d="M3941 12591 c-1 -25 -13 -67 -38 -136 -9 -22 -21 -56 -28 -75 -14
-37 -78 -80 -120 -80 -43 0 -133 49 -192 104 -34 31 -63 56 -67 56 -22 0 3
-37 63 -91 103 -96 187 -120 277 -77 34 16 50 31 61 57 22 52 42 120 47 163 2
21 7 42 10 47 3 5 2 20 -3 33 l-10 23 0 -24z"/>
<path d="M4430 12592 c0 -9 5 -32 10 -50 6 -17 14 -46 19 -62 9 -29 8 -31 -12
-24 -12 4 -25 11 -28 16 -21 33 -83 97 -90 93 -20 -13 98 -145 130 -145 43 0
43 22 5 143 -15 47 -34 63 -34 29z"/>
<path d="M3243 12473 c-7 -3 -13 -9 -13 -14 0 -11 31 -12 48 0 11 6 10 9 -5
13 -10 3 -24 3 -30 1z"/>
<path d="M2735 12430 c-29 -11 -73 -60 -54 -60 8 0 26 8 39 17 18 13 44 17
100 16 41 0 86 -3 100 -5 32 -6 110 -46 110 -57 0 -4 11 -13 24 -19 24 -11 34
-25 76 -112 38 -78 25 -178 -23 -182 -12 0 -35 -2 -52 -4 -29 -2 -83 14 -137
41 -15 8 -30 10 -33 6 -7 -12 31 -35 80 -51 22 -7 45 -16 50 -20 12 -8 92 -5
122 4 34 11 70 126 46 149 -3 4 -8 21 -10 39 -2 17 -10 39 -18 48 -8 9 -15 23
-15 31 -1 25 -74 95 -134 128 -52 29 -68 33 -155 36 -53 1 -105 -1 -116 -5z"/>
<path d="M2610 12309 c0 -6 13 -23 29 -39 16 -16 31 -37 35 -46 5 -13 10 -14
18 -6 8 8 2 21 -25 49 -21 20 -37 41 -37 45 0 4 -4 8 -10 8 -5 0 -10 -5 -10
-11z"/>
<path d="M2710 12203 c0 -12 38 -48 45 -41 3 2 -6 15 -20 28 -14 13 -25 19
-25 13z"/>
<path d="M1929 12193 c-20 -5 -41 -47 -44 -88 -3 -31 42 -216 54 -225 13 -9
34 -71 27 -78 -4 -4 -30 17 -57 46 -28 28 -55 52 -60 52 -5 0 -9 4 -9 10 0 11
-38 68 -65 97 -11 12 -26 43 -33 68 -8 29 -17 45 -25 42 -27 -9 9 -112 56
-159 13 -13 26 -31 30 -41 3 -9 11 -17 17 -17 5 0 10 -5 10 -10 0 -10 108
-120 117 -120 2 0 16 -12 31 -27 133 -134 303 -270 323 -257 21 13 5 35 -63
87 -142 108 -190 164 -254 295 -35 74 -47 112 -55 179 -9 74 -9 87 6 103 27
30 59 7 98 -71 34 -67 34 -70 31 -179 -2 -93 0 -112 13 -117 32 -13 352 65
384 93 8 8 21 14 27 14 13 0 42 39 42 58 0 9 -10 6 -32 -10 -18 -13 -44 -29
-58 -36 -46 -25 -242 -80 -313 -89 l-38 -4 6 33 c26 140 -6 259 -89 339 -19
18 -42 22 -77 12z"/>
<path d="M2770 12152 c0 -13 23 -32 39 -32 11 0 10 4 -4 20 -19 21 -35 26 -35
12z"/>
<path d="M2830 12102 c0 -5 7 -13 16 -16 10 -4 14 -1 12 6 -5 15 -28 23 -28
10z"/>
<path d="M1660 11341 c-14 -4 -41 -30 -63 -61 -20 -30 -44 -63 -52 -72 -13
-16 -19 -39 -16 -65 2 -28 28 -10 56 40 25 42 38 54 67 61 56 14 83 1 130 -61
38 -50 43 -62 46 -123 4 -65 3 -68 -29 -98 -32 -30 -37 -31 -107 -29 -40 2
-77 8 -80 13 -4 5 -19 11 -33 12 -28 2 -97 36 -200 99 -36 22 -75 44 -87 47
-12 4 -22 12 -22 18 0 15 -42 47 -62 48 -28 0 -21 -19 13 -38 18 -9 41 -27 52
-39 11 -13 27 -23 34 -23 7 0 13 -4 13 -9 0 -5 14 -14 30 -21 17 -7 30 -16 30
-21 0 -5 8 -9 18 -9 9 0 28 -9 42 -20 14 -11 31 -20 38 -20 8 0 26 -9 41 -19
42 -30 172 -60 220 -51 108 20 149 98 114 223 -27 98 -118 177 -183 160 -25
-7 -26 13 -1 26 41 23 87 -6 209 -127 65 -64 139 -143 166 -174 45 -54 76 -73
76 -47 0 23 -71 107 -177 209 -124 120 -164 152 -212 168 -37 13 -35 13 -71 3z"/>
<path d="M1158 11232 c-19 -4 -22 -11 -12 -36 9 -22 41 -20 47 4 6 23 -11 38
-35 32z"/>
<path d="M880 10857 c0 -7 24 -37 53 -68 102 -108 157 -170 157 -177 0 -4 17
-26 38 -48 43 -48 73 -84 87 -106 6 -8 28 -40 50 -70 73 -98 118 -187 113
-220 -3 -20 -8 -23 -46 -21 -45 2 -166 52 -217 89 -16 12 -49 28 -72 35 -24 7
-43 16 -43 20 0 4 -22 22 -50 40 -27 18 -50 36 -50 40 0 4 -10 11 -22 15 -13
3 -31 13 -41 22 -14 13 -20 13 -30 3 -9 -11 -9 -15 2 -18 7 -3 21 -14 29 -24
9 -11 20 -19 25 -19 5 0 29 -15 54 -32 74 -53 96 -67 133 -84 19 -9 42 -23 52
-31 9 -8 57 -32 107 -54 101 -43 169 -51 192 -23 20 25 19 74 -2 118 -10 22
-19 44 -19 49 0 4 -6 15 -12 22 -27 30 -38 44 -38 50 0 8 -152 207 -187 245
-18 19 -33 39 -33 45 0 5 -9 16 -20 23 -11 7 -20 17 -20 22 0 5 21 -4 48 -20
26 -17 56 -36 66 -43 11 -7 25 -15 30 -19 39 -28 180 -118 183 -118 2 0 27
-15 56 -33 80 -50 145 -82 153 -75 13 14 -7 54 -49 101 -55 60 -91 66 -50 8
15 -22 12 -22 -48 10 -35 18 -88 49 -118 69 -89 58 -155 103 -217 145 -32 22
-67 47 -80 55 -12 8 -46 32 -76 53 -56 38 -88 47 -88 24z"/>
<path d="M739 10491 l-24 -19 28 -26 c15 -14 32 -26 38 -26 15 0 10 22 -8 36
-15 11 -16 16 -5 33 15 26 2 27 -29 2z"/>
<path d="M498 10194 c-18 -17 23 -62 107 -116 28 -18 55 -38 60 -44 6 -6 27
-21 48 -33 21 -13 43 -28 50 -35 6 -6 27 -18 45 -25 17 -7 32 -17 32 -22 0 -5
4 -9 9 -9 5 0 50 -25 99 -56 l90 -56 -30 -48 c-41 -67 -30 -87 13 -22 18 29
39 52 44 52 6 0 36 -15 66 -33 166 -101 298 -155 321 -132 10 10 -5 55 -18 55
-8 0 -14 6 -14 13 -1 15 -57 76 -93 100 -25 16 -26 16 -19 -2 4 -10 26 -40 50
-67 23 -27 42 -52 42 -56 0 -4 -35 9 -77 28 -43 20 -85 38 -93 41 -30 10 -65
28 -78 41 -8 7 -27 19 -44 28 -23 12 -29 21 -26 39 7 33 -10 58 -18 28 -4 -16
-14 -23 -29 -23 -13 0 -25 4 -27 8 -2 4 -32 26 -68 47 -36 22 -75 45 -85 52
-11 7 -39 22 -63 34 -23 13 -50 31 -59 41 -9 10 -22 18 -29 18 -7 0 -28 13
-46 28 -18 16 -50 39 -70 51 -21 12 -39 28 -40 34 0 7 -1 19 -2 27 -1 15 -37
26 -48 14z"/>
<path d="M1005 9900 c-8 -13 20 -24 41 -16 20 8 9 26 -16 26 -10 0 -22 -5 -25
-10z"/>
<path d="M295 9859 c-10 -15 3 -25 16 -12 7 7 7 13 1 17 -6 3 -14 1 -17 -5z"/>
<path d="M415 9750 c3 -5 8 -10 11 -10 2 0 4 5 4 10 0 6 -5 10 -11 10 -5 0 -7
-4 -4 -10z"/>
<path d="M459 9719 c17 -16 26 -18 34 -10 8 8 7 11 -6 11 -9 0 -17 5 -17 10 0
6 -8 10 -17 10 -14 0 -13 -4 6 -21z"/>
<path d="M530 9679 c0 -15 57 -45 67 -35 3 3 -3 9 -13 12 -10 4 -27 14 -36 22
-15 13 -18 13 -18 1z"/>
<path d="M965 9660 c-3 -5 -1 -10 4 -10 6 0 11 5 11 10 0 6 -2 10 -4 10 -3 0
-8 -4 -11 -10z"/>
<path d="M605 9620 c3 -5 13 -10 21 -10 8 0 12 5 9 10 -3 6 -13 10 -21 10 -8
0 -12 -4 -9 -10z"/>
<path d="M932 9608 c-14 -14 -16 -28 -3 -28 9 0 24 30 18 36 -2 2 -9 -2 -15
-8z"/>
<path d="M655 9590 c3 -5 10 -10 16 -10 5 0 9 5 9 10 0 6 -7 10 -16 10 -8 0
-12 -4 -9 -10z"/>
<path d="M690 9569 c0 -6 9 -13 20 -16 11 -3 20 -9 20 -14 0 -5 7 -9 15 -9 25
0 17 18 -17 34 -37 19 -38 19 -38 5z"/>
<path d="M770 9517 c0 -9 9 -19 20 -22 11 -3 20 -11 20 -16 0 -5 7 -9 16 -9
23 0 13 18 -24 41 -26 17 -32 18 -32 6z"/>
<path d="M850 9460 c0 -10 68 -56 98 -67 9 -4 29 -15 44 -25 14 -10 31 -18 37
-18 19 0 12 18 -13 32 -13 7 -53 30 -88 51 -69 39 -78 43 -78 27z"/>
<path d="M1045 9340 c-3 -6 4 -15 17 -20 36 -17 66 -35 86 -53 10 -10 24 -17
30 -17 7 0 12 -3 12 -7 0 -5 18 -16 40 -27 21 -10 41 -25 44 -32 3 -8 14 -14
24 -14 11 0 45 -14 77 -31 46 -24 60 -28 66 -17 5 7 9 15 9 18 0 14 -208 126
-270 145 -14 4 -34 14 -45 21 -11 8 -27 14 -37 14 -10 0 -18 7 -18 15 0 17
-25 20 -35 5z"/>
</g>
</svg>
